<?xml version="1.0" encoding="UTF-8" standalone="no"?>
<svg
   width="210"
   height="30"
   viewBox="0 0 55.562494 7.9375005"
   version="1.1"
   id="svg8"
   inkscape:version="1.1.1 (3bf5ae0d25, 2021-09-20)"
   sodipodi:docname="tech_logo_white.svg"
   inkscape:export-filename="C:\Users\Seez\Documents\Clients\music dot africa\logo dark 1.png"
   inkscape:export-xdpi="126.316"
   inkscape:export-ydpi="126.316"
   xmlns:inkscape="http://www.inkscape.org/namespaces/inkscape"
   xmlns:sodipodi="http://sodipodi.sourceforge.net/DTD/sodipodi-0.dtd"
   xmlns:xlink="http://www.w3.org/1999/xlink"
   xmlns="http://www.w3.org/2000/svg"
   xmlns:svg="http://www.w3.org/2000/svg"
   xmlns:rdf="http://www.w3.org/1999/02/22-rdf-syntax-ns#"
   xmlns:cc="http://creativecommons.org/ns#"
   xmlns:dc="http://purl.org/dc/elements/1.1/">
  <defs
     id="defs2">
    <style
       id="style162">.cls-1{fill:#fff;}.cls-2{fill:url(#linear-gradient);}.cls-3{fill:url(#linear-gradient-2);}.cls-4{fill:url(#linear-gradient-3);}.cls-5{font-size:22.37px;}.cls-16,.cls-18,.cls-22,.cls-26,.cls-5,.cls-6,.cls-7{fill:#140077;}.cls-16,.cls-26,.cls-5{font-family:Montserrat-ExtraBold, Montserrat ExtraBold;font-weight:800;}.cls-22,.cls-6{font-size:10.65px;}.cls-18,.cls-22,.cls-6{font-family:Roboto-Regular, Roboto;}.cls-8{fill:url(#linear-gradient-4);}.cls-9{fill:url(#linear-gradient-5);}.cls-10{fill:url(#linear-gradient-6);}.cls-11{fill:url(#linear-gradient-7);}.cls-12{fill:url(#linear-gradient-8);}.cls-13{fill:url(#linear-gradient-9);}.cls-14{fill:url(#linear-gradient-10);}.cls-15{fill:url(#linear-gradient-11);}.cls-16{font-size:26.81px;}.cls-17{letter-spacing:-0.02em;}.cls-18{font-size:10.98px;letter-spacing:0.48em;}.cls-19{letter-spacing:0.45em;}.cls-20{letter-spacing:0.48em;}.cls-21{fill:url(#linear-gradient-12);}.cls-22{letter-spacing:0.48em;}.cls-23{letter-spacing:0.45em;}.cls-24{fill:url(#linear-gradient-13);}.cls-25{fill:url(#linear-gradient-14);}.cls-26{font-size:28.04px;}.cls-27{letter-spacing:-0.08em;}</style>
    <linearGradient
       id="linear-gradient"
       x1="413.98999"
       y1="101.7"
       x2="326.98999"
       y2="195.47"
       gradientUnits="userSpaceOnUse">
      <stop
         offset="0"
         stop-color="#c33764"
         id="stop164" />
      <stop
         offset="1"
         stop-color="#1d2671"
         id="stop166" />
    </linearGradient>
    <linearGradient
       id="linear-gradient-2"
       x1="423.47"
       y1="110.51"
       x2="336.48001"
       y2="204.27"
       xlink:href="#linear-gradient" />
    <linearGradient
       id="linear-gradient-3"
       x1="423.48001"
       y1="110.5"
       x2="336.48001"
       y2="204.27"
       xlink:href="#linear-gradient" />
    <linearGradient
       id="linear-gradient-4"
       x1="183.13"
       y1="315.34"
       x2="104.23"
       y2="401.17999"
       xlink:href="#linear-gradient" />
    <linearGradient
       id="linear-gradient-5"
       x1="187.60001"
       y1="319.45001"
       x2="108.7"
       y2="405.29001"
       xlink:href="#linear-gradient" />
    <linearGradient
       id="linear-gradient-6"
       x1="194.66"
       y1="325.94"
       x2="115.76"
       y2="411.78"
       xlink:href="#linear-gradient" />
    <linearGradient
       id="linear-gradient-7"
       x1="203.28"
       y1="333.85999"
       x2="124.37"
       y2="419.70001"
       xlink:href="#linear-gradient" />
    <linearGradient
       id="linear-gradient-8"
       x1="210.72"
       y1="340.70001"
       x2="131.81"
       y2="426.54001"
       xlink:href="#linear-gradient" />
    <linearGradient
       id="linear-gradient-9"
       x1="637.38"
       y1="324.17001"
       x2="555.19"
       y2="402.92999"
       xlink:href="#linear-gradient" />
    <linearGradient
       id="linear-gradient-10"
       x1="422.44"
       y1="329.45001"
       x2="321.38"
       y2="411.76001"
       xlink:href="#linear-gradient" />
    <linearGradient
       id="linear-gradient-11"
       x1="418.76001"
       y1="324.94"
       x2="317.70001"
       y2="407.25"
       xlink:href="#linear-gradient" />
    <linearGradient
       id="linear-gradient-12"
       x1="609.53998"
       y1="91.339996"
       x2="544.56"
       y2="164.31"
       xlink:href="#linear-gradient" />
    <linearGradient
       id="linear-gradient-13"
       x1="186.38"
       y1="69.400002"
       x2="118.4"
       y2="162.53"
       xlink:href="#linear-gradient" />
    <linearGradient
       id="linear-gradient-14"
       x1="186.35001"
       y1="69.440002"
       x2="118.41"
       y2="162.53"
       xlink:href="#linear-gradient" />
    <style
       id="style483">.cls-1{fill:#180f43;}.cls-2{fill:url(#radial-gradient);}.cls-3{fill:url(#radial-gradient-2);}.cls-4{fill:url(#linear-gradient);}.cls-5{fill:url(#linear-gradient-2);}.cls-6{fill:url(#linear-gradient-3);}.cls-7{fill:url(#linear-gradient-4);}.cls-8{fill:url(#linear-gradient-5);}.cls-9{fill:url(#linear-gradient-6);}.cls-10{fill:url(#linear-gradient-7);}.cls-11{fill:url(#linear-gradient-8);}.cls-12{fill:url(#linear-gradient-9);}.cls-13{fill:url(#linear-gradient-10);}.cls-14{fill:url(#linear-gradient-11);}.cls-15,.cls-48{font-size:9px;font-family:OpenSans;letter-spacing:0.33em;}.cls-15,.cls-18,.cls-41{fill:#fff;}.cls-16{letter-spacing:0.39em;}.cls-17{letter-spacing:0.4em;}.cls-18,.cls-41{font-size:28.17px;font-family:BebasNeueBold;}.cls-18{letter-spacing:0.1em;}.cls-19{letter-spacing:0.02em;}.cls-20,.cls-41{letter-spacing:0.1em;}.cls-21{fill-rule:evenodd;fill:url(#linear-gradient-12);}.cls-22{fill:url(#linear-gradient-13);}.cls-23{fill:url(#linear-gradient-14);}.cls-24{fill:url(#linear-gradient-15);}.cls-25{fill:url(#linear-gradient-16);}.cls-26{fill:url(#linear-gradient-17);}.cls-27{fill:url(#linear-gradient-18);}.cls-28{fill:url(#linear-gradient-19);}.cls-29{fill:url(#linear-gradient-20);}.cls-30{fill:url(#linear-gradient-21);}.cls-31{fill:url(#linear-gradient-22);}.cls-32{fill:url(#linear-gradient-23);}.cls-33{fill:url(#linear-gradient-24);}.cls-34{fill:url(#linear-gradient-25);}.cls-35{fill:url(#linear-gradient-26);}.cls-36{fill:url(#linear-gradient-27);}.cls-37{fill:url(#linear-gradient-28);}.cls-38{fill:url(#linear-gradient-29);}.cls-39{fill:url(#linear-gradient-30);}.cls-40{fill:url(#linear-gradient-31);}.cls-42{fill:url(#linear-gradient-32);}.cls-43{fill:url(#linear-gradient-33);}.cls-44{fill:url(#linear-gradient-34);}.cls-45{fill:url(#linear-gradient-35);}.cls-46{fill:url(#linear-gradient-36);}.cls-47{fill:url(#linear-gradient-37);}.cls-48{fill:#6d6e71;}.cls-49,.cls-51{font-size:24.67px;fill:#231f20;font-family:Montserrat-ExtraBold, Montserrat ExtraBold;font-weight:800;}.cls-49{letter-spacing:0.06em;}.cls-50{letter-spacing:0.02em;}.cls-51{letter-spacing:0.1em;}.cls-52{fill:url(#linear-gradient-38);}.cls-53{fill:url(#linear-gradient-39);}.cls-54{fill:url(#linear-gradient-40);}</style>
    <radialGradient
       id="radial-gradient"
       cx="132.32001"
       cy="435.04001"
       r="248.57001"
       gradientTransform="matrix(0.63,0,0,0.68,292.3,80.69)"
       gradientUnits="userSpaceOnUse">
      <stop
         offset="0"
         stop-color="#fff"
         stop-opacity="0"
         id="stop485" />
      <stop
         offset="0.13"
         stop-color="#fff"
         stop-opacity="0.02"
         id="stop487" />
      <stop
         offset="0.26"
         stop-color="#fdfdfd"
         stop-opacity="0.07"
         id="stop489" />
      <stop
         offset="0.39"
         stop-color="#fbfbfb"
         stop-opacity="0.16"
         id="stop491" />
      <stop
         offset="0.53"
         stop-color="#f8f8f8"
         stop-opacity="0.29"
         id="stop493" />
      <stop
         offset="0.66"
         stop-color="#f4f4f5"
         stop-opacity="0.45"
         id="stop495" />
      <stop
         offset="0.8"
         stop-color="#efeff0"
         stop-opacity="0.65"
         id="stop497" />
      <stop
         offset="0.94"
         stop-color="#e9eaeb"
         stop-opacity="0.88"
         id="stop499" />
      <stop
         offset="1"
         stop-color="#e6e7e8"
         id="stop501" />
    </radialGradient>
    <radialGradient
       id="radial-gradient-2"
       cx="-267.67999"
       cy="65.489998"
       r="269.10001"
       gradientTransform="matrix(0.63,0,0,0.68,292.3,80.69)"
       gradientUnits="userSpaceOnUse">
      <stop
         offset="0"
         stop-color="#fff"
         stop-opacity="0"
         id="stop504" />
      <stop
         offset="0.1"
         stop-color="#fefefe"
         stop-opacity="0.03"
         id="stop506" />
      <stop
         offset="0.23"
         stop-color="#fdfdfd"
         stop-opacity="0.1"
         id="stop508" />
      <stop
         offset="0.38"
         stop-color="#f9fafa"
         stop-opacity="0.22"
         id="stop510" />
      <stop
         offset="0.55"
         stop-color="#f5f6f6"
         stop-opacity="0.39"
         id="stop512" />
      <stop
         offset="0.73"
         stop-color="#f0f0f1"
         stop-opacity="0.61"
         id="stop514" />
      <stop
         offset="0.91"
         stop-color="#e9eaeb"
         stop-opacity="0.87"
         id="stop516" />
      <stop
         offset="1"
         stop-color="#e6e7e8"
         id="stop518" />
    </radialGradient>
    <linearGradient
       id="linear-gradient-1"
       x1="71.309998"
       y1="357.32001"
       x2="172.78999"
       y2="357.32001"
       gradientUnits="userSpaceOnUse">
      <stop
         offset="0"
         stop-color="#2154c4"
         id="stop521" />
      <stop
         offset="0.49"
         stop-color="#16a8d1"
         id="stop523" />
      <stop
         offset="1"
         stop-color="#22e2a7"
         id="stop525" />
    </linearGradient>
    <linearGradient
       id="linear-gradient-2-8"
       x1="71.300003"
       y1="357.14999"
       x2="172.8"
       y2="357.14999"
       xlink:href="#linear-gradient-1"
       gradientTransform="matrix(0.26458334,0,0,0.26458334,-221.20061,166.15832)" />
    <linearGradient
       id="linear-gradient-3-8"
       x1="71.32"
       y1="361"
       x2="172.8"
       y2="361"
       xlink:href="#linear-gradient-1"
       gradientTransform="matrix(0.26458334,0,0,0.26458334,-221.20061,166.15832)" />
    <linearGradient
       id="linear-gradient-4-4"
       x1="71.290001"
       y1="357.14999"
       x2="172.81"
       y2="357.14999"
       xlink:href="#linear-gradient-1"
       gradientTransform="matrix(0.26458334,0,0,0.26458334,-221.20061,166.15832)" />
    <linearGradient
       id="linear-gradient-5-0"
       x1="71.309998"
       y1="357.14999"
       x2="172.78"
       y2="357.14999"
       xlink:href="#linear-gradient-1"
       gradientTransform="matrix(0.26458334,0,0,0.26458334,-221.20061,166.15832)" />
    <linearGradient
       id="linear-gradient-6-4"
       x1="71.32"
       y1="357.14999"
       x2="172.8"
       y2="357.14999"
       xlink:href="#linear-gradient-1"
       gradientTransform="matrix(0.26458334,0,0,0.26458334,-221.20061,166.15832)" />
    <linearGradient
       id="linear-gradient-7-1"
       x1="71.300003"
       y1="357.14999"
       x2="172.81"
       y2="357.14999"
       xlink:href="#linear-gradient-1"
       gradientTransform="matrix(0.26458334,0,0,0.26458334,-221.20061,166.15832)" />
    <linearGradient
       id="linear-gradient-9-8"
       x1="71.290001"
       y1="358"
       x2="172.83"
       y2="358"
       xlink:href="#linear-gradient-1"
       gradientTransform="matrix(0.26458334,0,0,0.26458334,-221.20061,166.15832)" />
    <linearGradient
       id="linear-gradient-10-8"
       x1="71.269997"
       y1="358"
       x2="172.81"
       y2="358"
       xlink:href="#linear-gradient-1"
       gradientTransform="matrix(0.26458334,0,0,0.26458334,-221.20061,166.15832)" />
    <linearGradient
       id="linear-gradient-11-7"
       x1="72.470001"
       y1="336.25"
       x2="171.69"
       y2="336.25"
       xlink:href="#linear-gradient-1"
       gradientTransform="matrix(0.26458334,0,0,0.26458334,-221.20061,166.15832)" />
    <linearGradient
       id="linear-gradient-12-7"
       x1="321.32999"
       y1="107.33"
       x2="430.81"
       y2="107.33"
       gradientUnits="userSpaceOnUse">
      <stop
         offset="0"
         stop-color="#fc1b7c"
         id="stop538" />
      <stop
         offset="0.49"
         stop-color="#714cf4"
         id="stop540" />
      <stop
         offset="1"
         stop-color="#0084f3"
         id="stop542" />
    </linearGradient>
    <linearGradient
       id="linear-gradient-13-0"
       x1="321.32999"
       y1="114.78"
       x2="430.81"
       y2="114.78"
       xlink:href="#linear-gradient-12-7"
       gradientTransform="matrix(0.26458334,0,0,0.26458334,-221.20061,166.15832)" />
    <linearGradient
       id="linear-gradient-14-9"
       x1="321.32999"
       y1="122.23"
       x2="430.81"
       y2="122.23"
       xlink:href="#linear-gradient-12-7"
       gradientTransform="matrix(0.26458334,0,0,0.26458334,-221.20061,166.15832)" />
    <linearGradient
       id="linear-gradient-15"
       x1="321.32999"
       y1="129.67999"
       x2="430.81"
       y2="129.67999"
       xlink:href="#linear-gradient-12-7"
       gradientTransform="matrix(0.26458334,0,0,0.26458334,-221.20061,166.15832)" />
    <linearGradient
       id="linear-gradient-16"
       x1="321.34"
       y1="114.78"
       x2="430.79999"
       y2="114.78"
       xlink:href="#linear-gradient-12-7"
       gradientTransform="matrix(0.26458334,0,0,0.26458334,-221.20061,166.15832)" />
    <linearGradient
       id="linear-gradient-17"
       x1="321.34"
       y1="122.23"
       x2="430.79999"
       y2="122.23"
       xlink:href="#linear-gradient-12-7" />
    <linearGradient
       id="linear-gradient-18"
       x1="321.34"
       y1="129.67999"
       x2="430.79999"
       y2="129.67999"
       xlink:href="#linear-gradient-12-7" />
    <linearGradient
       id="linear-gradient-19"
       x1="321.32999"
       y1="92.419998"
       x2="430.79999"
       y2="92.419998"
       xlink:href="#linear-gradient-12-7"
       gradientTransform="matrix(0.26458334,0,0,0.26458334,-221.20061,166.15832)" />
    <linearGradient
       id="linear-gradient-20"
       x1="321.32999"
       y1="99.879997"
       x2="430.79999"
       y2="99.879997"
       xlink:href="#linear-gradient-12-7"
       gradientTransform="matrix(0.26458334,0,0,0.26458334,-221.20061,166.15832)" />
    <linearGradient
       id="linear-gradient-21"
       x1="321.32999"
       y1="107.33"
       x2="430.79999"
       y2="107.33"
       xlink:href="#linear-gradient-12-7"
       gradientTransform="matrix(0.26458334,0,0,0.26458334,-221.20061,166.15832)" />
    <linearGradient
       id="linear-gradient-22"
       x1="321.32999"
       y1="114.78"
       x2="430.79999"
       y2="114.78"
       xlink:href="#linear-gradient-12-7"
       gradientTransform="matrix(0.26458334,0,0,0.26458334,-221.20061,166.15832)" />
    <linearGradient
       id="linear-gradient-23"
       x1="321.32999"
       y1="122.23"
       x2="430.79999"
       y2="122.23"
       xlink:href="#linear-gradient-12-7"
       gradientTransform="matrix(0.26458334,0,0,0.26458334,-221.20061,166.15832)" />
    <linearGradient
       id="linear-gradient-24"
       x1="321.32999"
       y1="129.67999"
       x2="430.79999"
       y2="129.67999"
       xlink:href="#linear-gradient-12-7"
       gradientTransform="matrix(0.26458334,0,0,0.26458334,-221.20061,166.15832)" />
    <linearGradient
       id="linear-gradient-27"
       x1="321.32999"
       y1="107.33"
       x2="430.81"
       y2="107.33"
       xlink:href="#linear-gradient-12-7"
       gradientTransform="matrix(0.26458334,0,0,0.26458334,-221.20061,166.15832)" />
    <linearGradient
       id="linear-gradient-31"
       x1="321.32999"
       y1="96.769997"
       x2="430.79999"
       y2="96.769997"
       xlink:href="#linear-gradient-12-7"
       gradientTransform="matrix(0.26458334,0,0,0.26458334,-221.20061,166.15832)" />
    <linearGradient
       id="linear-gradient-32"
       x1="317.16"
       y1="350.89001"
       x2="388.10999"
       y2="350.89001"
       gradientUnits="userSpaceOnUse">
      <stop
         offset="0"
         stop-color="#18eff2"
         id="stop564" />
      <stop
         offset="0.5"
         stop-color="#109ef5"
         id="stop566" />
      <stop
         offset="1"
         stop-color="#144ccb"
         id="stop568" />
    </linearGradient>
    <linearGradient
       id="linear-gradient-33"
       x1="317.16"
       y1="327.59"
       x2="388.10999"
       y2="327.59"
       xlink:href="#linear-gradient-32"
       gradientTransform="matrix(0.26458334,0,0,0.26458334,-221.20061,166.15832)" />
    <linearGradient
       id="linear-gradient-34"
       x1="444.23999"
       y1="164.82001"
       x2="524.73999"
       y2="164.82001"
       gradientTransform="matrix(0.16849732,-0.16826221,0.16826221,0.16849732,-220.8249,311.44103)"
       xlink:href="#linear-gradient-32" />
    <linearGradient
       id="linear-gradient-35"
       x1="442.69"
       y1="162.77"
       x2="523.65002"
       y2="162.77"
       gradientTransform="matrix(0.16849732,-0.16826221,0.16826221,0.16849732,-220.8249,311.44103)"
       xlink:href="#linear-gradient-32" />
    <linearGradient
       id="linear-gradient-36"
       x1="445.85001"
       y1="174.97"
       x2="526.92999"
       y2="174.97"
       gradientTransform="matrix(0.16849732,-0.16826221,0.16826221,0.16849732,-220.8249,311.44103)"
       xlink:href="#linear-gradient-32" />
    <linearGradient
       id="linear-gradient-37"
       x1="447.23001"
       y1="183.39"
       x2="529.35999"
       y2="183.39"
       gradientTransform="matrix(0.16849732,-0.16826221,0.16826221,0.16849732,-220.8249,311.44103)"
       xlink:href="#linear-gradient-32" />
    <linearGradient
       id="linear-gradient-38"
       x1="52.279999"
       y1="108.99"
       x2="197.25"
       y2="108.99"
       gradientUnits="userSpaceOnUse">
      <stop
         offset="0"
         stop-color="#f23514"
         id="stop576" />
      <stop
         offset="0.49"
         stop-color="#f87458"
         id="stop578" />
      <stop
         offset="1"
         stop-color="#f6e813"
         id="stop580" />
    </linearGradient>
    <linearGradient
       id="linear-gradient-39"
       x1="52.279999"
       y1="108.99"
       x2="197.25"
       y2="108.99"
       xlink:href="#linear-gradient-38"
       gradientTransform="matrix(0.26458334,0,0,0.26458334,-207.0454,125.01561)" />
    <linearGradient
       id="linear-gradient-40"
       x1="52.279999"
       y1="96.57"
       x2="197.25"
       y2="96.57"
       xlink:href="#linear-gradient-38"
       gradientTransform="matrix(0.26458334,0,0,0.26458334,-207.0454,125.01561)" />
  </defs>
  <sodipodi:namedview
     id="base"
     pagecolor="#ffffff"
     bordercolor="#666666"
     borderopacity="1.0"
     inkscape:pageopacity="0.0"
     inkscape:pageshadow="2"
     inkscape:zoom="1.4142137"
     inkscape:cx="190.91881"
     inkscape:cy="172.18048"
     inkscape:document-units="px"
     inkscape:current-layer="layer1"
     inkscape:document-rotation="0"
     showgrid="false"
     units="px"
     inkscape:window-width="1920"
     inkscape:window-height="1027"
     inkscape:window-x="-8"
     inkscape:window-y="-8"
     inkscape:window-maximized="1"
     inkscape:pagecheckerboard="0" />
  <metadata
     id="metadata5">
    <rdf:RDF>
      <cc:Work
         rdf:about="">
        <dc:format>image/svg+xml</dc:format>
        <dc:type
           rdf:resource="http://purl.org/dc/dcmitype/StillImage" />
      </cc:Work>
    </rdf:RDF>
  </metadata>
  <g
     inkscape:label="Layer 1"
     inkscape:groupmode="layer"
     id="layer1">
    <g
       id="g6385"
       style="fill:#ffffff">
      <path
         d="m 2.1469645,5.8532203 q -0.6033439,0 -1.0813175,-0.1958906 Q 0.58767333,5.4614385 0.29775484,5.0774928 0.01567176,4.6935463 1.9107928e-7,4.1528872 H 1.4260864 q 0.03134,0.30559 0.2115621,0.4701382 0.1802197,0.1567127 0.4701382,0.1567127 0.2977539,0 0.4701382,-0.1332057 0.1723836,-0.1410412 0.1723836,-0.3839457 0,-0.2037267 -0.1410412,-0.3369325 Q 2.4760616,3.7924485 2.2723349,3.7062559 2.0764443,3.6200642 1.7081687,3.5103654 1.1753457,3.3458165 0.83841326,3.1812683 0.5014808,3.0167202 0.25857628,2.6954593 0.01567176,2.3741977 0.01567176,1.8570462 q 0,-0.7678928 0.55633,-1.19885249 Q 1.1283318,0.2193979 2.0215942,0.2193979 q 0.908934,0 1.465264,0.43879581 Q 4.043189,1.0891534 4.0823668,1.8648816 H 2.6327743 Q 2.6171005,1.5984701 2.436883,1.4495928 2.2566633,1.2928801 1.974581,1.2928801 q -0.2429053,0 -0.3917819,0.1332057 -0.1488773,0.1253704 -0.1488773,0.3682749 0,0.2664115 0.2507407,0.4152888 0.2507399,0.1488773 0.7835637,0.3212609 0.532823,0.1802197 0.86192,0.3447679 0.3369318,0.1645489 0.579837,0.4779744 0.2429045,0.3134254 0.2429045,0.8070706 0,0.4701382 -0.2429045,0.8540839 -0.2350691,0.3839465 -0.6895365,0.6111801 -0.4544666,0.227233 -1.0734822,0.227233 z"
         id="path6316"
         style="font-weight:bold;font-size:10.5833px;line-height:1.25;font-family:Poppins;-inkscape-font-specification:'Poppins, Bold';letter-spacing:0px;stroke-width:0.195891;fill:#ffffff" />
      <path
         d="M 9.2930635,1.4260858 V 5.7983709 H 7.9531698 V 5.2028624 q -0.2037267,0.2899192 -0.55633,0.4701382 -0.3447679,0.1723843 -0.7678929,0.1723843 -0.5014806,0 -0.8854263,-0.2193976 Q 5.3595742,5.3987537 5.1480121,4.9756294 4.9364499,4.5525052 4.9364499,3.9805036 V 1.4260858 h 1.3320583 v 2.3741981 q 0,0.4387958 0.227233,0.6817003 0.2272337,0.2429045 0.6111801,0.2429045 0.3917818,0 0.6190148,-0.2429045 Q 7.9531698,4.2390797 7.9531698,3.8002839 V 1.4260858 Z"
         id="path6318"
         style="font-weight:bold;font-size:10.5833px;line-height:1.25;font-family:Poppins;-inkscape-font-specification:'Poppins, Bold';letter-spacing:0px;stroke-width:0.195891;fill:#ffffff" />
      <path
         d="M 11.596739,2.0451014 Q 11.79263,1.7395113 12.137398,1.5514562 12.482166,1.363401 12.944469,1.363401 q 0.540658,0 0.979454,0.274247 0.438796,0.2742476 0.689536,0.7835636 0.258576,0.5093168 0.258576,1.183181 0,0.6738649 -0.258576,1.1910171 -0.25074,0.509316 -0.689536,0.7913991 -0.438796,0.2742477 -0.979454,0.2742477 -0.454467,0 -0.807071,-0.1880559 Q 11.79263,5.4849454 11.596739,5.1871915 v 2.695459 H 10.256845 V 1.4260858 h 1.339894 z m 1.911895,1.5592912 q 0,-0.5014806 -0.282083,-0.7835637 -0.274247,-0.2899185 -0.6817,-0.2899185 -0.399617,0 -0.6817,0.2899185 -0.274247,0.2899185 -0.274247,0.7913998 0,0.5014807 0.274247,0.7913991 0.282083,0.2899185 0.6817,0.2899185 0.399618,0 0.6817,-0.2899185 0.282083,-0.2977539 0.282083,-0.7992352 z"
         id="path6320"
         style="font-weight:bold;font-size:10.5833px;line-height:1.25;font-family:Poppins;-inkscape-font-specification:'Poppins, Bold';letter-spacing:0px;stroke-width:0.195891;fill:#ffffff" />
      <path
         d="m 19.69878,3.5417078 q 0,0.1880551 -0.02351,0.3917818 h -3.032391 q 0.03134,0.4074534 0.258576,0.626851 0.235069,0.2115621 0.572001,0.2115621 0.501481,0 0.697371,-0.4231242 h 1.426087 q -0.109699,0.4309596 -0.399618,0.7757275 -0.282083,0.3447686 -0.713043,0.5406592 -0.43096,0.1958913 -0.963783,0.1958913 -0.642522,0 -1.144003,-0.2742477 -0.50148,-0.2742469 -0.783564,-0.7835637 -0.282083,-0.509316 -0.282083,-1.1910164 0,-0.6817003 0.274247,-1.1910171 0.282083,-0.509316 0.783564,-0.7835636 0.501481,-0.274247 1.151839,-0.274247 0.634687,0 1.128332,0.2664115 0.493644,0.2664115 0.767892,0.7600567 0.282083,0.4936452 0.282083,1.1518386 z m -1.371237,-0.352604 q 0,-0.3447679 -0.235069,-0.5484946 -0.235069,-0.203726 -0.587672,-0.203726 -0.336933,0 -0.572002,0.1958906 -0.227234,0.1958913 -0.282083,0.55633 z"
         id="path6322"
         style="font-weight:bold;font-size:10.5833px;line-height:1.25;font-family:Poppins;-inkscape-font-specification:'Poppins, Bold';letter-spacing:0px;stroke-width:0.195891;fill:#ffffff" />
      <path
         d="M 21.743874,2.1548001 Q 21.978943,1.7943607 22.331546,1.590634 22.68415,1.3790719 23.11511,1.3790719 v 1.41825 h -0.368275 q -0.501481,0 -0.752221,0.2193983 -0.25074,0.2115621 -0.25074,0.7522213 V 5.7983709 H 20.40398 V 1.4260858 h 1.339894 z"
         id="path6324"
         style="font-weight:bold;font-size:10.5833px;line-height:1.25;font-family:Poppins;-inkscape-font-specification:'Poppins, Bold';letter-spacing:0px;stroke-width:0.195891;fill:#ffffff" />
      <path
         d="m 23.491217,3.6122287 q 0,-0.6817003 0.274248,-1.1910171 0.282082,-0.509316 0.775727,-0.7835636 0.501481,-0.274247 1.144003,-0.274247 0.822743,0 1.371236,0.4309597 0.556331,0.4309604 0.728715,1.2145241 H 26.35906 q -0.180219,-0.5014814 -0.697372,-0.5014814 -0.368274,0 -0.587672,0.2899185 -0.219398,0.2820831 -0.219398,0.8149068 0,0.5328231 0.219398,0.8227415 0.219398,0.2820831 0.587672,0.2820831 0.517153,0 0.697372,-0.5014806 h 1.426086 q -0.172384,0.7678921 -0.728715,1.2066879 -0.55633,0.4387959 -1.371236,0.4387959 -0.642522,0 -1.144003,-0.2742477 Q 24.047547,5.3125619 23.765465,4.8032451 23.491217,4.2939291 23.491217,3.6122287 Z"
         id="path6326"
         style="font-weight:bold;font-size:10.5833px;line-height:1.25;font-family:Poppins;-inkscape-font-specification:'Poppins, Bold';letter-spacing:0px;stroke-width:0.195891;fill:#ffffff" />
      <path
         d="m 28.231775,3.6043926 q 0,-0.6738642 0.25074,-1.183181 0.258577,-0.509316 0.697372,-0.7835636 0.438795,-0.274247 0.979455,-0.274247 0.462302,0 0.80707,0.1880552 0.352604,0.1880551 0.540659,0.4936452 V 1.4260858 h 1.339894 V 5.7983709 H 31.507071 V 5.1793561 q -0.195891,0.3055893 -0.548494,0.4936445 -0.344769,0.1880559 -0.807071,0.1880559 -0.532824,0 -0.971619,-0.2742477 -0.438795,-0.2820831 -0.697372,-0.7913991 -0.25074,-0.5171522 -0.25074,-1.1910171 z m 3.275296,0.00783 q 0,-0.5014814 -0.282083,-0.7913999 -0.274247,-0.2899185 -0.673865,-0.2899185 -0.399617,0 -0.6817,0.2899185 -0.274248,0.2820831 -0.274248,0.7835637 0,0.5014814 0.274248,0.7992353 0.282083,0.2899185 0.6817,0.2899185 0.399618,0 0.673865,-0.2899185 0.282083,-0.2899185 0.282083,-0.7913991 z"
         id="path6328"
         style="font-weight:bold;font-size:10.5833px;line-height:1.25;font-family:Poppins;-inkscape-font-specification:'Poppins, Bold';letter-spacing:0px;stroke-width:0.195891;fill:#ffffff" />
      <path
         d="M 35.158467,2.1548001 Q 35.393536,1.7943607 35.74614,1.590634 36.098744,1.3790719 36.529704,1.3790719 v 1.41825 h -0.368275 q -0.501481,0 -0.752221,0.2193983 -0.250741,0.2115621 -0.250741,0.7522213 V 5.7983709 H 33.818574 V 1.4260858 h 1.339893 z"
         id="path6330"
         style="font-weight:bold;font-size:10.5833px;line-height:1.25;font-family:Poppins;-inkscape-font-specification:'Poppins, Bold';letter-spacing:0px;stroke-width:0.195891;fill:#ffffff" />
    </g>
    <g
       id="g6375"
       transform="translate(0.21945175)">
      <path
         d="m 41.99114,2.9932132 q 0.462302,0.086192 0.760057,0.4623028 0.297754,0.3761103 0.297754,0.8619201 0,0.438795 -0.219398,0.7757275 -0.211562,0.329097 -0.619016,0.5171522 -0.407453,0.1880551 -0.963783,0.1880551 H 38.888228 V 0.32909667 h 2.256663 q 0.55633,0 0.955948,0.18021972 0.407452,0.18021972 0.611179,0.50148061 0.211562,0.3212609 0.211562,0.7287143 0,0.4779736 -0.258576,0.7992353 -0.25074,0.3212609 -0.673864,0.4544666 z M 39.985217,2.5857598 h 1.002961 q 0.391782,0 0.603344,-0.1723836 0.211562,-0.1802197 0.211562,-0.5093167 0,-0.3290963 -0.211562,-0.5093161 Q 41.37996,1.2145237 40.988178,1.2145237 h -1.002961 z m 1.104824,2.3193487 q 0.399618,0 0.619016,-0.1880552 0.227233,-0.1880551 0.227233,-0.532823 0,-0.352604 -0.235069,-0.5484946 Q 41.466152,3.432009 41.066534,3.432009 h -1.081317 v 1.4730995 z"
         style="font-weight:600;font-size:10.5833px;line-height:1.25;font-family:Poppins;-inkscape-font-specification:'Poppins, Semi-Bold';letter-spacing:0px;fill:#f59e0b;stroke-width:0.195891"
         id="path6332" />
      <path
         d="m 45.023528,0 v 5.7983709 h -1.09699 V 0 Z"
         style="font-weight:600;font-size:10.5833px;line-height:1.25;font-family:Poppins;-inkscape-font-specification:'Poppins, Semi-Bold';letter-spacing:0px;fill:#f59e0b;stroke-width:0.195891"
         id="path6334" />
      <path
         d="m 48.03241,5.8688919 q -0.626851,0 -1.128332,-0.2742477 -0.50148,-0.2820823 -0.791399,-0.7913991 -0.282083,-0.509316 -0.282083,-1.1753455 0,-0.6660288 0.289919,-1.1753456 0.297753,-0.509316 0.80707,-0.7835636 0.509316,-0.2820824 1.136167,-0.2820824 0.626851,0 1.136168,0.2820824 0.509316,0.2742476 0.799234,0.7835636 0.297755,0.5093168 0.297755,1.1753456 0,0.6660295 -0.30559,1.1753455 -0.297754,0.5093168 -0.814906,0.7913991 -0.509317,0.2742477 -1.144003,0.2742477 z m 0,-0.955948 q 0.297754,0 0.55633,-0.1410412 0.266412,-0.1488773 0.423125,-0.4387958 0.156713,-0.2899185 0.156713,-0.7052073 0,-0.6190148 -0.329097,-0.9481119 -0.321261,-0.3369324 -0.7914,-0.3369324 -0.470138,0 -0.791399,0.3369324 -0.313426,0.3290971 -0.313426,0.9481119 0,0.6190155 0.30559,0.955948 0.313426,0.3290963 0.783564,0.3290963 z"
         style="font-weight:600;font-size:10.5833px;line-height:1.25;font-family:Poppins;-inkscape-font-specification:'Poppins, Semi-Bold';letter-spacing:0px;fill:#f59e0b;stroke-width:0.195891"
         id="path6336" />
      <path
         d="m 52.8043,1.386908 q 0.48581,0 0.854085,0.1958906 0.368275,0.1880551 0.579837,0.4936452 V 1.4574282 h 1.104825 v 4.3722851 q 0,0.6033447 -0.242905,1.0734822 -0.242905,0.4779744 -0.728714,0.7522213 -0.48581,0.2820831 -1.175346,0.2820831 -0.924605,0 -1.520113,-0.4309597 -0.587673,-0.4309604 -0.66603,-1.1753455 h 1.089154 q 0.08619,0.2977539 0.368275,0.4701382 0.289918,0.180219 0.697372,0.180219 0.477973,0 0.775727,-0.2899185 0.297755,-0.2820824 0.297755,-0.8619201 V 5.1558491 Q 54.02666,5.4614385 53.650549,5.6651652 53.282274,5.8688919 52.8043,5.8688919 q -0.548494,0 -1.002961,-0.2820831 -0.454467,-0.2820831 -0.720879,-0.7913991 -0.258576,-0.5171522 -0.258576,-1.183181 0,-0.658194 0.258576,-1.1675101 0.266412,-0.509316 0.713043,-0.7835637 Q 52.24797,1.386908 52.8043,1.386908 Z m 1.433922,2.2409916 q 0,-0.3996173 -0.156713,-0.6817004 -0.156713,-0.2899185 -0.423124,-0.4387958 -0.266412,-0.1567127 -0.572002,-0.1567127 -0.30559,0 -0.564166,0.1488773 -0.258576,0.1488773 -0.423124,0.4387958 -0.156713,0.2820831 -0.156713,0.6738649 0,0.3917819 0.156713,0.6895358 0.164548,0.2899185 0.423124,0.4466312 0.266412,0.1567128 0.564166,0.1567128 0.30559,0 0.572002,-0.1488774 0.266411,-0.1567127 0.423124,-0.438795 0.156713,-0.2899185 0.156713,-0.6895365 z"
         style="font-weight:600;font-size:10.5833px;line-height:1.25;font-family:Poppins;-inkscape-font-specification:'Poppins, Semi-Bold';letter-spacing:0px;fill:#f59e0b;stroke-width:0.195891"
         id="path6338" />
    </g>
    <g
       id="g24494"
       style="fill:#3b82f6"
       transform="translate(0.74835459,-1.8708865)">
      <g
         id="g24481"
         style="fill:#3b82f6"
         transform="translate(61.177988,-23.573169)">
        <path
           d="m 32.884021,7.8421359 -1.632015,-2.88252 h -0.699435 v 2.88252 h -1.48365 V 0.44508101 h 2.776545 q 0.858397,0 1.462455,0.3073275 0.604057,0.29672999 0.900787,0.81600749 0.307328,0.50868 0.307328,1.14453 0,0.7312275 -0.4239,1.3246875 -0.4239,0.5828625 -1.261103,0.8054099 l 1.769783,2.9990925 z m -2.33145,-3.9952574 h 1.239907 q 0.604058,0 0.900788,-0.2861325 0.29673,-0.29673 0.29673,-0.8160075 0,-0.50868 -0.29673,-0.784215 Q 32.396536,1.674391 31.792478,1.674391 h -1.239907 z"
           style="font-weight:600;font-size:10.5975px;line-height:1.25;font-family:Poppins;-inkscape-font-specification:'Poppins, Semi-Bold';letter-spacing:0px;fill:#3b82f6;stroke-width:0.264937"
           id="path24471" />
        <path
           d="m 38.46889,7.9375134 q -0.8478,0 -1.52604,-0.3709125 -0.67824,-0.38151 -1.070348,-1.0703475 -0.38151,-0.6888375 -0.38151,-1.589625 0,-0.9007874 0.392108,-1.5896249 0.402705,-0.6888375 1.091542,-1.05975 0.688838,-0.38151 1.536638,-0.38151 0.8478,0 1.536637,0.38151 0.688838,0.3709125 1.080945,1.05975 0.402705,0.6888375 0.402705,1.5896249 0,0.9007875 -0.413302,1.589625 -0.402705,0.6888375 -1.10214,1.0703475 -0.688838,0.3709125 -1.547235,0.3709125 z m 0,-1.292895 q 0.402705,0 0.752422,-0.190755 0.360315,-0.2013525 0.572265,-0.59346 0.21195,-0.3921075 0.21195,-0.953775 0,-0.8372024 -0.445095,-1.2822974 -0.434497,-0.4556925 -1.070347,-0.4556925 -0.63585,0 -1.070348,0.4556925 -0.4239,0.445095 -0.4239,1.2822974 0,0.8372025 0.413303,1.292895 0.4239,0.445095 1.05975,0.445095 z"
           style="font-weight:600;font-size:10.5975px;line-height:1.25;font-family:Poppins;-inkscape-font-specification:'Poppins, Semi-Bold';letter-spacing:0px;fill:#3b82f6;stroke-width:0.264937"
           id="path24473" />
        <path
           d="m 42.241587,4.8854334 q 0,-0.8901899 0.349718,-1.5790274 0.360315,-0.6888375 0.97497,-1.05975 0.614655,-0.3709125 1.367077,-0.3709125 0.572265,0 1.091543,0.25434 0.519277,0.2437425 0.826605,0.657045 V -1.3980865e-5 h 1.504845 V 7.8421359 H 46.8515 v -0.868995 q -0.275535,0.4344975 -0.773618,0.699435 -0.498082,0.2649375 -1.155127,0.2649375 -0.741825,0 -1.35648,-0.38151 -0.614655,-0.38151 -0.97497,-1.0703475 -0.349718,-0.699435 -0.349718,-1.6002225 z m 4.62051,0.021195 q 0,-0.5404724 -0.21195,-0.9219824 -0.21195,-0.3921075 -0.572265,-0.59346 -0.360315,-0.21195 -0.773617,-0.21195 -0.413303,0 -0.76302,0.2013525 -0.349718,0.2013525 -0.572265,0.59346 -0.21195,0.38151 -0.21195,0.9113849 0,0.529875 0.21195,0.93258 0.222547,0.3921075 0.572265,0.6040575 0.360315,0.21195 0.76302,0.21195 0.413302,0 0.773617,-0.2013525 0.360315,-0.21195 0.572265,-0.59346 0.21195,-0.3921075 0.21195,-0.93258 z"
           style="font-weight:600;font-size:10.5975px;line-height:1.25;font-family:Poppins;-inkscape-font-specification:'Poppins, Semi-Bold';letter-spacing:0px;fill:#3b82f6;stroke-width:0.264937"
           id="path24475" />
        <path
           d="m 55.265906,4.7794585 q 0,0.3179249 -0.04239,0.5722649 h -4.291987 q 0.05299,0.63585 0.445095,0.996165 0.392107,0.360315 0.964372,0.360315 0.826605,0 1.176323,-0.7100325 h 1.600222 q -0.25434,0.8478 -0.97497,1.39887 -0.72063,0.5404725 -1.769782,0.5404725 -0.8478,0 -1.52604,-0.3709125 -0.667643,-0.38151 -1.049153,-1.0703475 -0.370912,-0.6888375 -0.370912,-1.589625 0,-0.9113849 0.370912,-1.6002224 0.370913,-0.6888375 1.038555,-1.05975 0.667643,-0.3709125 1.536638,-0.3709125 0.837202,0 1.494247,0.360315 0.667643,0.360315 1.027958,1.0279575 0.370912,0.657045 0.370912,1.5154425 z m -1.536637,-0.4239 q -0.0106,-0.572265 -0.413303,-0.911385 -0.402705,-0.3497175 -0.985567,-0.3497175 -0.55107,0 -0.93258,0.33912 -0.370913,0.3285225 -0.455693,0.9219825 z"
           style="font-weight:600;font-size:10.5975px;line-height:1.25;font-family:Poppins;-inkscape-font-specification:'Poppins, Semi-Bold';letter-spacing:0px;fill:#3b82f6;stroke-width:0.264937"
           id="path24477" />
        <path
           d="m 58.953826,7.9375134 q -0.8478,0 -1.52604,-0.3709125 -0.67824,-0.38151 -1.070348,-1.0703475 -0.38151,-0.6888375 -0.38151,-1.589625 0,-0.9007874 0.392108,-1.5896249 0.402705,-0.6888375 1.091542,-1.05975 0.688838,-0.38151 1.536638,-0.38151 0.8478,0 1.536637,0.38151 0.688838,0.3709125 1.080945,1.05975 0.402705,0.6888375 0.402705,1.5896249 0,0.9007875 -0.413302,1.589625 -0.402705,0.6888375 -1.10214,1.0703475 -0.688838,0.3709125 -1.547235,0.3709125 z m 0,-1.292895 q 0.402705,0 0.752422,-0.190755 0.360315,-0.2013525 0.572265,-0.59346 0.21195,-0.3921075 0.21195,-0.953775 0,-0.8372024 -0.445095,-1.2822974 -0.434497,-0.4556925 -1.070347,-0.4556925 -0.63585,0 -1.070348,0.4556925 -0.4239,0.445095 -0.4239,1.2822974 0,0.8372025 0.413303,1.292895 0.4239,0.445095 1.05975,0.445095 z"
           style="font-weight:600;font-size:10.5975px;line-height:1.25;font-family:Poppins;-inkscape-font-specification:'Poppins, Semi-Bold';letter-spacing:0px;fill:#3b82f6;stroke-width:0.264937"
           id="path24479" />
      </g>
    </g>
    <text
       xml:space="preserve"
       style="font-style:normal;font-variant:normal;font-weight:bold;font-stretch:normal;font-size:10.5833px;line-height:1.25;font-family:Poppins;-inkscape-font-specification:'Poppins, Bold';font-variant-ligatures:normal;font-variant-caps:normal;font-variant-numeric:normal;font-variant-east-asian:normal;letter-spacing:0px;stroke-width:0.264583"
       x="-55.378239"
       y="-43.40456"
       id="text7480"><tspan
         sodipodi:role="line"
         id="tspan7478"
         style="font-style:normal;font-variant:normal;font-weight:bold;font-stretch:normal;font-size:10.5833px;font-family:Poppins;-inkscape-font-specification:'Poppins, Bold';font-variant-ligatures:normal;font-variant-caps:normal;font-variant-numeric:normal;font-variant-east-asian:normal;stroke-width:0.264583"
         x="-55.378239"
         y="-43.40456">tech <tspan
   style="font-style:normal;font-variant:normal;font-weight:600;font-stretch:normal;font-size:10.5833px;font-family:Poppins;-inkscape-font-specification:'Poppins, Semi-Bold';font-variant-ligatures:normal;font-variant-caps:normal;font-variant-numeric:normal;font-variant-east-asian:normal"
   id="tspan7474">communi</tspan><tspan
   style="font-style:normal;font-variant:normal;font-weight:600;font-stretch:normal;font-size:10.5833px;font-family:Poppins;-inkscape-font-specification:'Poppins, Semi-Bold';font-variant-ligatures:normal;font-variant-caps:normal;font-variant-numeric:normal;font-variant-east-asian:normal"
   id="tspan7476">T</tspan></tspan></text>
    <g
       id="g8249"
       style="fill:#f59e0b"
       transform="translate(34.424311,-30.682538)">
      <g
         id="g8247"
         style="fill:#f59e0b"
         transform="translate(61.177988,-23.573169)">
        <path
           d="m 32.884021,7.8421359 -1.632015,-2.88252 h -0.699435 v 2.88252 h -1.48365 V 0.44508101 h 2.776545 q 0.858397,0 1.462455,0.3073275 0.604057,0.29672999 0.900787,0.81600749 0.307328,0.50868 0.307328,1.14453 0,0.7312275 -0.4239,1.3246875 -0.4239,0.5828625 -1.261103,0.8054099 l 1.769783,2.9990925 z m -2.33145,-3.9952574 h 1.239907 q 0.604058,0 0.900788,-0.2861325 0.29673,-0.29673 0.29673,-0.8160075 0,-0.50868 -0.29673,-0.784215 Q 32.396536,1.674391 31.792478,1.674391 h -1.239907 z"
           style="font-weight:600;font-size:10.5975px;line-height:1.25;font-family:Poppins;-inkscape-font-specification:'Poppins, Semi-Bold';letter-spacing:0px;fill:#f59e0b;stroke-width:0.264937"
           id="path8237" />
        <path
           d="m 38.46889,7.9375134 q -0.8478,0 -1.52604,-0.3709125 -0.67824,-0.38151 -1.070348,-1.0703475 -0.38151,-0.6888375 -0.38151,-1.589625 0,-0.9007874 0.392108,-1.5896249 0.402705,-0.6888375 1.091542,-1.05975 0.688838,-0.38151 1.536638,-0.38151 0.8478,0 1.536637,0.38151 0.688838,0.3709125 1.080945,1.05975 0.402705,0.6888375 0.402705,1.5896249 0,0.9007875 -0.413302,1.589625 -0.402705,0.6888375 -1.10214,1.0703475 -0.688838,0.3709125 -1.547235,0.3709125 z m 0,-1.292895 q 0.402705,0 0.752422,-0.190755 0.360315,-0.2013525 0.572265,-0.59346 0.21195,-0.3921075 0.21195,-0.953775 0,-0.8372024 -0.445095,-1.2822974 -0.434497,-0.4556925 -1.070347,-0.4556925 -0.63585,0 -1.070348,0.4556925 -0.4239,0.445095 -0.4239,1.2822974 0,0.8372025 0.413303,1.292895 0.4239,0.445095 1.05975,0.445095 z"
           style="font-weight:600;font-size:10.5975px;line-height:1.25;font-family:Poppins;-inkscape-font-specification:'Poppins, Semi-Bold';letter-spacing:0px;fill:#f59e0b;stroke-width:0.264937"
           id="path8239" />
        <path
           d="m 42.241587,4.8854334 q 0,-0.8901899 0.349718,-1.5790274 0.360315,-0.6888375 0.97497,-1.05975 0.614655,-0.3709125 1.367077,-0.3709125 0.572265,0 1.091543,0.25434 0.519277,0.2437425 0.826605,0.657045 V -1.3980865e-5 h 1.504845 V 7.8421359 H 46.8515 v -0.868995 q -0.275535,0.4344975 -0.773618,0.699435 -0.498082,0.2649375 -1.155127,0.2649375 -0.741825,0 -1.35648,-0.38151 -0.614655,-0.38151 -0.97497,-1.0703475 -0.349718,-0.699435 -0.349718,-1.6002225 z m 4.62051,0.021195 q 0,-0.5404724 -0.21195,-0.9219824 -0.21195,-0.3921075 -0.572265,-0.59346 -0.360315,-0.21195 -0.773617,-0.21195 -0.413303,0 -0.76302,0.2013525 -0.349718,0.2013525 -0.572265,0.59346 -0.21195,0.38151 -0.21195,0.9113849 0,0.529875 0.21195,0.93258 0.222547,0.3921075 0.572265,0.6040575 0.360315,0.21195 0.76302,0.21195 0.413302,0 0.773617,-0.2013525 0.360315,-0.21195 0.572265,-0.59346 0.21195,-0.3921075 0.21195,-0.93258 z"
           style="font-weight:600;font-size:10.5975px;line-height:1.25;font-family:Poppins;-inkscape-font-specification:'Poppins, Semi-Bold';letter-spacing:0px;fill:#f59e0b;stroke-width:0.264937"
           id="path8241" />
        <path
           d="m 55.265906,4.7794585 q 0,0.3179249 -0.04239,0.5722649 h -4.291987 q 0.05299,0.63585 0.445095,0.996165 0.392107,0.360315 0.964372,0.360315 0.826605,0 1.176323,-0.7100325 h 1.600222 q -0.25434,0.8478 -0.97497,1.39887 -0.72063,0.5404725 -1.769782,0.5404725 -0.8478,0 -1.52604,-0.3709125 -0.667643,-0.38151 -1.049153,-1.0703475 -0.370912,-0.6888375 -0.370912,-1.589625 0,-0.9113849 0.370912,-1.6002224 0.370913,-0.6888375 1.038555,-1.05975 0.667643,-0.3709125 1.536638,-0.3709125 0.837202,0 1.494247,0.360315 0.667643,0.360315 1.027958,1.0279575 0.370912,0.657045 0.370912,1.5154425 z m -1.536637,-0.4239 q -0.0106,-0.572265 -0.413303,-0.911385 -0.402705,-0.3497175 -0.985567,-0.3497175 -0.55107,0 -0.93258,0.33912 -0.370913,0.3285225 -0.455693,0.9219825 z"
           style="font-weight:600;font-size:10.5975px;line-height:1.25;font-family:Poppins;-inkscape-font-specification:'Poppins, Semi-Bold';letter-spacing:0px;fill:#f59e0b;stroke-width:0.264937"
           id="path8243" />
        <path
           d="m 58.953826,7.9375134 q -0.8478,0 -1.52604,-0.3709125 -0.67824,-0.38151 -1.070348,-1.0703475 -0.38151,-0.6888375 -0.38151,-1.589625 0,-0.9007874 0.392108,-1.5896249 0.402705,-0.6888375 1.091542,-1.05975 0.688838,-0.38151 1.536638,-0.38151 0.8478,0 1.536637,0.38151 0.688838,0.3709125 1.080945,1.05975 0.402705,0.6888375 0.402705,1.5896249 0,0.9007875 -0.413302,1.589625 -0.402705,0.6888375 -1.10214,1.0703475 -0.688838,0.3709125 -1.547235,0.3709125 z m 0,-1.292895 q 0.402705,0 0.752422,-0.190755 0.360315,-0.2013525 0.572265,-0.59346 0.21195,-0.3921075 0.21195,-0.953775 0,-0.8372024 -0.445095,-1.2822974 -0.434497,-0.4556925 -1.070347,-0.4556925 -0.63585,0 -1.070348,0.4556925 -0.4239,0.445095 -0.4239,1.2822974 0,0.8372025 0.413303,1.292895 0.4239,0.445095 1.05975,0.445095 z"
           style="font-weight:600;font-size:10.5975px;line-height:1.25;font-family:Poppins;-inkscape-font-specification:'Poppins, Semi-Bold';letter-spacing:0px;fill:#f59e0b;stroke-width:0.264937"
           id="path8245" />
      </g>
    </g>
    <text
       xml:space="preserve"
       style="font-style:normal;font-variant:normal;font-weight:bold;font-stretch:normal;font-size:10.5833px;line-height:1.25;font-family:Poppins;-inkscape-font-specification:'Poppins, Bold';font-variant-ligatures:normal;font-variant-caps:normal;font-variant-numeric:normal;font-variant-east-asian:normal;letter-spacing:0px;stroke-width:0.264583"
       x="120.48508"
       y="10.851138"
       id="text10667"><tspan
         sodipodi:role="line"
         id="tspan10665"
         style="font-style:normal;font-variant:normal;font-weight:bold;font-stretch:normal;font-size:10.5833px;font-family:Poppins;-inkscape-font-specification:'Poppins, Bold';font-variant-ligatures:normal;font-variant-caps:normal;font-variant-numeric:normal;font-variant-east-asian:normal;stroke-width:0.264583"
         x="120.48508"
         y="10.851138">Tech <tspan
   style="font-style:normal;font-variant:normal;font-weight:600;font-stretch:normal;font-size:10.5833px;font-family:Poppins;-inkscape-font-specification:'Poppins, Semi-Bold';font-variant-ligatures:normal;font-variant-caps:normal;font-variant-numeric:normal;font-variant-east-asian:normal"
   id="tspan10663">island</tspan></tspan></text>
  </g>
</svg>
